_________________________  Visit us at _________________________
  
http://p2pdl.com  ____________________________  http://p2pdl.com


 
http://cdn.piczend.com/images/GY7nrNoh/1362011728_rise.jpg

Rise Of The Guardians 2012 BRRip 720p x264 AAC - PRiSTiNE

Genre: Animation | Adventure | Family | Fantasy
Plot: When the evil spirit Pitch launches an assault on Earth, 
the Immortal Guardians team up to protect the innocence of children all around the world.
Director: Peter Ramsey
Stars: Hugh Jackman, Alec Baldwin, Isla Fisher
Rated: Rated PG for thematic elements and some mildly scary action.

Info: 
http://www.imdb.com/title/tt1446192/
 
http://www.rottentomatoes.com/m/rise_of_the_guardians_2012/

General
Complete name                  : Rise Of The Guardians 2012 BRRip 720p x264 AAC - PRiSTiNE.mp4
Format                         : MPEG-4
Format profile                 : Base Media / Version 2
Codec ID                       : mp42
File size                      : 546 MiB
Duration                       : 1h 37mn
Overall bit rate mode          : Variable
Overall bit rate               : 785 Kbps

Video
Format                         : AVC
Width                          : 1 280 pixels
Height                         : 720 pixels
Display aspect ratio           : 16:9
Frame rate mode                : Variable
Frame rate                     : 23.976 fps
Color space                    : YUV
Chroma subsampling             : 4:2:0
Bit depth                      : 8 bits
Scan type                      : Progressive
Bits/(Pixel*Frame)             : 0.032
Stream size                    : 486 MiB (89%)
Writing library                : x264 core 129

Audio
Format                         : AAC
Duration                       : 1h 37mn
Bit rate mode                  : Variable
Bit rate                       : 79.8 Kbps
Channel(s)                     : 2 channels
Channel positions              : Front: L R
Sampling rate                  : 48.0 KHz
Stream size                    : 55.5 MiB (10%)
Language                       : English

Subtitle                       : Yes ( English)


Screens: 
http://www.shotpix.com/images/33155445833859808854.jpg 
http://www.shotpix.com/images/82950204350446986057.jpg 
http://www.shotpix.com/images/96840258220685629071.jpg 
http://www.shotpix.com/images/92916103786000739127.jpg


Thumbs: 
http://www.shotpix.com/images/21520482128491609032.jpg
----------------------------------------------------------------------------------------------------


Recommend to you to use latest version of VLC player. Install K-Lite Codec Pack or shark007 codecs
in case of any kind of problem in playback (For non-VLC Media Player users). Alternatively, install
Core AVC codecs, the fastest decoder that there is coupled with Community Center Codec Pack and play
on Windows Media Player Classic. Check sample to be sure.
Enjoy!

Greets to: VYTO, a2zRG, MusiK_KinG, Kuroyukihime, TorDigger, Ash968, StyLishSaLH, Masta and staff members at
ExtraTorrent, TPB, H33T, KAT, 1337x, PublicHD, Ahashare, BTScene, SilverTorrent, LimeTorrents, TorrentMafia,
P2PDL, and all others.

Encoder Notes: Looking For Early Access To Anything You Can Provide DVDScr, R5, DVDR, BluRay, Direct
Audio, Early Music Releases, Seedboxes, Dedicated Servers anything u can provide, Advance / Promo CDs/
DVDs. If You Got anything to offer contact me at "prg@hush.com".